<?xml version="1.0" standalone="no"?>
<!DOCTYPE svg PUBLIC "-//W3C//DTD SVG 20010904//EN"
 "http://www.w3.org/TR/2001/REC-SVG-20010904/DTD/svg10.dtd">
<svg version="1.0" xmlns="http://www.w3.org/2000/svg"
 width="860.000000pt" height="860.000000pt" viewBox="0 0 860.000000 860.000000"
 preserveAspectRatio="xMidYMid meet">
<metadata>
Created by potrace 1.11, written by Peter Selinger 2001-2013
</metadata>
<g transform="translate(0.000000,860.000000) scale(0.100000,-0.100000)"
fill="#000000" stroke="none">
<path d="M4075 8584 c-106 -6 -276 -25 -412 -44 -1640 -238 -3016 -1438 -3483
-3037 -186 -635 -221 -1338 -100 -1998 277 -1511 1373 -2778 2835 -3275 963
-328 2025 -303 2970 72 310 122 629 297 905 494 214 153 333 255 550 473 352
353 592 685 810 1123 459 922 566 1981 304 2998 -305 1177 -1132 2194 -2233
2745 -470 235 -933 370 -1476 430 -135 15 -546 27 -670 19z m470 -134 c1184
-71 2271 -634 3012 -1560 502 -628 807 -1381 888 -2189 20 -203 20 -609 0
-812 -108 -1081 -619 -2059 -1445 -2764 -725 -619 -1623 -964 -2585 -991
-1281 -37 -2503 517 -3320 1504 -626 757 -955 1673 -955 2657 0 999 342 1932
985 2690 853 1004 2109 1543 3420 1465z"/>
<path d="M4013 8246 c-107 -34 -164 -102 -171 -204 -6 -88 13 -147 63 -198 73
-72 184 -93 289 -53 211 79 200 389 -16 454 -62 18 -108 18 -165 1z m155 -27
c37 -18 49 -32 71 -78 34 -75 37 -204 4 -266 -40 -77 -153 -109 -233 -67 -58
31 -84 90 -88 203 -4 82 -1 101 17 136 44 87 137 116 229 72z"/>
<path d="M4505 8240 c3 -5 14 -10 24 -10 40 0 42 -19 22 -214 -10 -107 -24
-192 -31 -201 -7 -8 -26 -15 -43 -15 -19 0 -27 -4 -22 -9 6 -5 57 -12 115 -15
97 -5 102 -5 74 9 -17 8 -34 20 -37 27 -6 16 9 187 17 195 3 3 25 2 48 -3 38
-8 44 -13 54 -49 11 -37 12 -38 17 -15 10 46 17 150 9 150 -4 0 -14 -15 -22
-33 -14 -29 -19 -32 -60 -32 l-45 0 2 45 c1 25 5 69 8 99 l7 54 65 -6 c81 -8
109 -25 124 -77 7 -21 16 -37 20 -34 15 9 11 114 -3 114 -7 0 -78 7 -158 15
-175 17 -193 18 -185 5z"/>
<path d="M2783 7957 c-63 -31 -83 -52 -40 -42 41 11 50 -15 43 -108 -4 -45 -9
-97 -13 -114 l-5 -33 -104 72 c-57 39 -104 77 -104 84 0 7 9 18 20 24 11 6 18
15 15 20 -3 5 -43 -9 -88 -31 -82 -40 -113 -66 -63 -53 22 5 48 -8 153 -77
120 -80 128 -87 155 -144 34 -72 35 -88 6 -108 -13 -8 -21 -17 -18 -20 6 -7
180 73 180 82 0 4 -16 5 -35 3 -33 -4 -35 -3 -67 62 l-32 66 16 146 c13 120
20 150 37 168 22 23 27 36 14 35 -5 0 -36 -14 -70 -32z"/>
<path d="M3315 7955 c-54 -53 -16 -145 58 -145 23 0 43 9 62 26 24 22 27 31
22 67 -10 74 -91 104 -142 52z"/>
<path d="M5214 7946 c-59 -50 -21 -146 57 -146 29 0 43 7 63 31 34 40 33 74
-3 110 -37 36 -79 38 -117 5z"/>
<path d="M5810 7952 c0 -5 11 -14 25 -20 14 -6 25 -18 25 -26 0 -22 -157 -341
-174 -355 -9 -8 -27 -10 -46 -6 -51 11 -34 -2 62 -49 89 -43 126 -52 80 -20
-30 21 -28 42 15 131 21 43 39 79 39 81 4 7 214 -104 214 -113 -1 -5 -20 -46
-43 -90 -43 -82 -54 -90 -99 -70 -10 4 -18 3 -18 -2 0 -5 43 -30 95 -56 52
-26 95 -43 95 -37 0 5 -9 14 -20 20 -11 6 -20 21 -20 33 0 12 37 96 83 187
l82 165 38 -1 c20 -1 37 2 37 5 0 4 -43 28 -95 54 -52 26 -95 43 -95 38 0 -5
11 -16 25 -25 14 -9 25 -23 25 -31 0 -17 -67 -155 -75 -155 -5 0 -207 100
-213 105 -1 1 15 36 36 76 38 72 40 74 76 73 20 -1 36 1 36 5 0 3 -39 24 -87
46 -109 50 -103 48 -103 37z"/>
<path d="M2125 7604 c-93 -63 -176 -119 -184 -123 -11 -7 -8 -17 14 -55 28
-48 52 -63 39 -23 -19 55 -11 79 41 119 28 21 53 38 58 38 12 0 227 -330 227
-350 0 -10 -12 -27 -27 -38 -16 -11 -25 -23 -22 -26 3 -3 49 24 103 60 93 62
123 94 57 60 -29 -15 -32 -15 -50 3 -20 20 -207 300 -217 324 -6 17 82 77 114
77 11 0 35 -12 52 -26 17 -15 33 -24 36 -21 7 7 -54 97 -64 96 -4 0 -83 -52
-177 -115z"/>
<path d="M4104 7659 c-1191 -61 -2282 -780 -2820 -1859 -410 -824 -467 -1775
-157 -2645 343 -964 1129 -1733 2105 -2059 356 -119 674 -170 1068 -169 255 0
412 13 630 54 671 127 1269 445 1755 933 526 528 840 1155 954 1901 45 292 41
717 -10 1020 -121 719 -436 1332 -949 1845 -686 686 -1588 1029 -2576 979z
m226 -464 l0 -345 -492 0 -493 0 -24 -103 c-170 -741 -647 -1229 -1393 -1426
-188 -50 -372 -78 -635 -96 -76 -5 -93 -4 -93 7 0 8 15 59 34 114 114 339 300
676 533 970 109 136 366 395 498 501 442 354 935 576 1488 672 131 23 363 45
515 49 l62 2 0 -345z m275 325 c562 -48 1113 -253 1581 -589 300 -216 603
-526 803 -825 166 -247 272 -458 377 -754 l44 -123 -82 6 c-248 20 -541 79
-751 151 -297 103 -602 298 -796 510 -232 253 -407 618 -443 924 l-3 25 -470
5 -470 5 -3 330 c-1 181 0 335 2 340 4 12 15 11 211 -5z m-275 -1412 c0 -376
4 -689 9 -696 5 -8 17 -12 27 -10 18 3 19 28 24 693 l5 690 441 3 441 2 19
-87 c26 -120 22 -190 -20 -385 -67 -307 -147 -557 -255 -797 -28 -63 -51 -116
-51 -118 0 -2 77 -3 170 -3 l170 0 1 -272 0 -273 66 -42 c61 -40 71 -43 134
-43 l69 0 0 -79 c0 -69 4 -88 35 -152 35 -75 66 -177 64 -214 0 -17 -2 -16 -9
5 -5 14 -16 50 -24 81 -12 41 -28 69 -66 109 l-50 53 0 68 0 69 -140 0 c-77 0
-140 -4 -140 -8 0 -7 -36 -8 -91 -3 -3 1 -12 13 -19 29 l-12 27 -11 -23 c-14
-30 -29 -23 -39 17 -11 41 -24 45 -91 31 -37 -7 -63 -20 -82 -40 -16 -17 -39
-30 -53 -30 -31 0 -24 19 16 45 19 12 31 28 32 42 0 22 2 23 178 25 l177 3 3
263 2 262 -925 0 -925 0 0 -262 0 -263 26 -12 c16 -7 44 -10 70 -6 55 7 56 -6
1 -32 -28 -13 -43 -27 -45 -42 -3 -17 -10 -23 -28 -23 -23 0 -24 -2 -24 -80 0
-79 0 -80 25 -80 14 0 25 -2 25 -4 0 -16 -64 -144 -77 -153 -9 -7 -36 -13 -60
-13 -34 0 -46 -5 -58 -24 -38 -57 -28 -128 21 -146 31 -12 32 -34 2 -25 -65
19 -128 88 -128 139 0 9 -9 39 -20 68 -23 61 -26 135 -6 181 7 18 43 76 80
130 36 54 66 102 66 107 0 5 18 21 40 35 l41 26 -1 232 c-1 128 -1 248 -1 267
l1 35 160 -3 c88 -2 160 -1 160 1 0 3 -20 48 -45 101 -96 207 -190 506 -244
775 -55 270 -55 267 -26 383 15 57 28 109 30 116 3 9 106 12 470 12 l465 0 0
-682z m804 -836 c-5 -5 -28 -23 -50 -40 l-42 -32 -739 0 -739 0 -39 40 -39 40
829 0 c456 0 825 -4 819 -8z m51 -207 c0 -91 -2 -165 -5 -165 -2 0 -19 14 -37
32 -33 32 -33 32 -33 132 0 99 0 100 32 133 18 18 34 33 37 33 4 0 6 -74 6
-165z m-3675 85 c656 -105 1089 -330 1278 -662 33 -57 72 -165 72 -198 0 -20
-2 -20 -900 -20 l-900 0 0 79 c0 195 41 517 92 716 l23 90 70 6 c124 10 138 9
265 -11z m2930 -759 l0 -705 -32 -33 c-18 -18 -36 -33 -40 -33 -4 0 -8 350 -8
777 l0 777 40 -39 40 -39 0 -705z m2997 730 c51 -176 90 -446 100 -683 l6
-168 -878 0 -878 0 6 34 c17 108 109 257 227 370 218 208 564 358 1015 441
110 20 354 54 375 52 8 -1 20 -22 27 -46z m-3287 -726 l0 -635 -51 0 c-48 0
-50 1 -38 18 8 9 22 23 32 31 33 24 6 101 -34 101 -17 0 -19 8 -19 65 l0 65
-45 0 c-34 0 -47 5 -55 20 -12 23 -210 481 -210 486 0 2 9 4 20 4 11 0 20 7
20 15 0 11 7 14 24 9 41 -10 51 5 24 35 -29 33 -48 66 -48 85 0 8 -14 16 -32
19 -18 2 -47 10 -65 18 -28 11 -34 11 -51 -5 -28 -24 -135 -19 -140 7 -3 12 9
23 42 37 26 11 46 26 46 35 0 21 13 19 28 -5 7 -12 23 -20 41 -20 16 0 34 -7
41 -15 13 -16 50 -21 50 -7 0 5 6 17 14 28 14 18 16 18 53 -18 51 -48 75 -52
80 -13 2 17 8 34 14 40 12 12 11 62 -2 87 -10 18 -8 19 13 13 12 -3 53 -21 91
-40 l67 -33 0 56 c0 84 -11 92 -132 92 -95 0 -98 -1 -98 -22 0 -13 12 -34 25
-47 21 -19 31 -51 27 -81 -1 -6 -26 -74 -29 -79 -1 -2 -22 14 -45 35 l-43 40
3 94 c1 52 4 101 7 108 3 9 51 12 190 12 l185 0 0 -635z m740 551 c0 -76 -2
-85 -20 -91 -11 -3 -20 -10 -20 -15 0 -5 9 -14 20 -20 24 -13 27 -40 4 -40 -9
0 -30 -16 -47 -35 -30 -34 -32 -35 -109 -35 l-78 0 0 -80 c0 -77 1 -80 23 -80
34 0 37 -7 22 -48 -39 -112 -40 -161 -4 -234 15 -28 19 -60 19 -133 l0 -95
-35 0 -35 0 0 -85 0 -85 150 0 150 0 0 85 0 85 -29 0 -30 0 -3 105 c-2 58 0
105 5 105 4 0 7 -5 7 -10 0 -6 11 -15 25 -20 21 -8 25 -16 25 -53 0 -25 9 -59
22 -82 18 -32 22 -58 23 -135 2 -98 21 -173 67 -268 l22 -44 45 7 c64 10 80
21 102 70 10 23 26 48 34 55 8 7 15 23 15 37 0 43 18 63 55 63 l34 0 -6 -49
c-3 -29 -1 -51 5 -55 21 -13 41 7 52 54 l12 49 56 3 57 3 0 80 0 80 -32 3 -33
3 0 175 c0 162 2 177 21 203 16 21 20 39 17 66 -4 34 -2 36 19 32 25 -5 29 3
11 21 -7 7 -8 12 -2 12 19 0 94 -102 105 -144 6 -22 18 -61 26 -86 24 -67 27
-178 9 -252 -9 -35 -34 -99 -56 -143 -109 -222 -304 -355 -570 -390 l-45 -5 3
-49 c3 -44 0 -53 -30 -86 -42 -46 -110 -59 -154 -30 -17 11 -8 -4 28 -47 207
-244 348 -640 418 -1172 27 -205 39 -376 29 -404 l-9 -22 -442 2 -443 3 -3
804 c-1 566 -5 808 -13 817 -8 10 -16 11 -30 3 -18 -9 -19 -35 -19 -819 l0
-810 -479 0 -480 0 -7 48 c-13 88 22 404 76 672 79 395 198 676 374 883 l56
66 0 86 c0 83 -1 85 -22 80 -94 -21 -109 -23 -106 -12 2 7 27 23 56 37 28 14
62 35 74 47 13 11 35 23 51 27 l27 6 0 -130 0 -130 385 0 385 0 0 180 0 180
-105 0 -105 0 0 628 c0 346 3 632 7 635 3 4 89 7 190 7 l183 0 0 -84z m-1147
-133 c-7 -2 -13 -11 -13 -19 0 -24 -30 -29 -45 -7 -10 14 -22 19 -43 15 -16
-2 -33 1 -36 7 -5 8 17 11 71 10 43 0 72 -3 66 -6z m-557 -123 c-91 -134 -103
-182 -67 -290 11 -36 26 -84 31 -107 11 -45 74 -108 117 -119 29 -8 29 -11 -1
-79 l-25 -55 -45 0 -46 0 0 -85 0 -85 138 0 137 0 49 -76 c38 -57 57 -77 78
-81 24 -5 28 -10 28 -40 0 -39 -34 -111 -56 -120 -8 -3 -38 2 -67 12 -187 61
-332 186 -417 360 -51 103 -73 198 -72 310 0 143 43 286 120 397 32 47 151
168 164 168 5 0 -25 -49 -66 -110z m1874 60 c0 -9 9 -29 21 -44 19 -24 22 -25
33 -11 11 15 13 15 25 1 8 -10 29 -16 52 -16 43 0 44 -2 28 -32 -10 -18 -17
-20 -69 -14 -39 5 -65 3 -78 -5 -14 -9 -25 -8 -50 5 -18 9 -32 21 -32 26 0 18
-33 40 -61 40 -36 0 -37 12 -2 40 19 15 38 20 60 18 20 -2 34 1 37 9 7 18 36
5 36 -17z m-1403 -36 c-3 -3 -12 -4 -19 -1 -8 3 -5 6 6 6 11 1 17 -2 13 -5z
m1316 -57 c8 -12 31 -31 50 -42 34 -18 37 -18 56 -1 16 15 25 16 60 6 23 -6
46 -8 51 -5 19 12 10 -12 -52 -141 l-61 -129 -79 160 c-43 87 -78 163 -78 167
0 17 39 7 53 -15z m-1175 -49 c8 -10 11 -18 6 -18 -17 0 -34 23 -33 45 0 14 2
16 6 5 3 -8 12 -23 21 -32z m1692 -67 c0 -5 -5 -11 -10 -13 -7 -2 -6 -14 2
-34 9 -26 8 -35 -5 -55 -17 -23 -17 -22 -17 44 0 53 3 67 15 67 8 0 15 -4 15
-9z m-790 -161 c0 -93 -13 -120 -25 -50 -6 35 10 140 21 140 2 0 4 -40 4 -90z
m-1081 -2 c39 -91 39 -88 -24 -88 -54 0 -56 1 -49 23 13 41 43 107 49 107 3 0
14 -19 24 -42z m1671 -162 l0 -175 -32 -3 -33 -3 -3 -82 c-3 -76 -1 -83 16
-83 17 0 18 -4 8 -42 -6 -24 -19 -54 -28 -68 -9 -14 -22 -37 -28 -51 -14 -31
-48 -49 -91 -49 -33 0 -46 23 -92 165 -23 72 -24 85 -14 133 10 49 9 56 -16
107 -15 32 -27 72 -27 94 0 48 -8 71 -24 71 -28 0 -54 45 -58 98 -1 28 -1 52
2 52 3 0 50 -94 106 -208 l101 -207 103 213 c57 116 105 212 107 212 1 0 3
-78 3 -174z m-1916 132 c-16 -53 -57 -128 -69 -128 -42 0 -58 66 -30 120 14
27 21 30 61 30 42 0 45 -1 38 -22z m-519 -195 c-24 -159 -163 -348 -349 -473
-93 -62 -284 -155 -408 -199 -219 -77 -598 -159 -813 -178 l-72 -6 -31 114
c-43 157 -58 224 -81 369 -17 108 -41 340 -41 401 0 19 15 19 901 19 l901 0
-7 -47z m4685 2 c0 -153 -54 -502 -108 -705 -34 -126 -20 -121 -242 -90 -785
108 -1250 356 -1380 736 -11 32 -20 68 -20 81 l0 23 875 0 875 0 0 -45z
m-3799 -61 c5 -15 8 -28 6 -30 -2 -2 -28 1 -58 7 -109 21 -116 21 -147 5 -28
-14 -102 -23 -102 -12 0 3 4 16 10 30 l10 26 135 0 135 0 11 -26z m-105 -29
c16 -8 46 -15 67 -15 20 0 37 -4 37 -10 0 -5 -6 -9 -12 -7 -10 1 -13 -19 -13
-78 l0 -80 163 -3 c140 -2 162 0 162 13 0 19 14 19 34 -1 24 -24 19 -48 -17
-88 -27 -29 -41 -36 -70 -36 -36 0 -37 -1 -37 -39 0 -36 -3 -40 -34 -51 -19
-6 -40 -18 -48 -27 -7 -9 -33 -25 -58 -36 -25 -11 -58 -31 -73 -46 -26 -24
-35 -26 -103 -25 -41 1 -77 4 -80 6 -3 3 7 27 21 54 18 34 25 61 23 89 -3 36
-6 40 -33 45 -22 4 -40 20 -74 69 -28 41 -41 66 -33 69 7 2 12 17 12 33 0 17
7 44 16 61 10 19 14 42 10 60 -4 22 -2 29 7 25 7 -3 28 4 47 14 43 22 50 23
86 4z m-154 -67 c-9 -9 -12 -7 -12 12 0 19 3 21 12 12 9 -9 9 -15 0 -24z
m1906 -165 c-14 -52 -28 -65 -28 -26 0 41 9 63 25 63 11 0 11 -8 3 -37z m-748
-255 l0 -102 -35 34 c-47 46 -48 90 -3 137 18 18 33 33 35 33 2 0 3 -46 3
-102z m2709 -390 c-363 -988 -1166 -1731 -2180 -2019 -208 -59 -498 -104 -704
-110 l-70 -3 0 300 0 299 466 3 466 2 52 158 c260 790 839 1281 1676 1421 136
23 174 27 262 29 l62 2 -30 -82z m-5794 11 c760 -122 1327 -515 1625 -1124 54
-110 111 -269 129 -357 l12 -58 505 0 504 0 0 -306 0 -306 -132 6 c-506 26
-886 119 -1303 320 -351 169 -635 374 -915 662 -220 226 -388 453 -532 719
-80 146 -208 439 -208 473 0 11 161 -4 315 -29z"/>
<path d="M4608 4956 c-14 -10 -18 -28 -18 -73 l0 -61 76 38 c42 21 98 44 125
51 41 11 49 17 49 36 0 23 -2 23 -107 23 -74 -1 -114 -5 -125 -14z"/>
<path d="M4825 3525 c-14 -13 -25 -36 -25 -50 0 -33 41 -75 73 -75 41 0 71 32
71 75 0 69 -71 99 -119 50z m83 -11 c43 -29 16 -94 -39 -94 -32 0 -52 28 -47
62 5 38 26 32 21 -7 -2 -20 1 -35 7 -35 5 0 10 7 10 17 0 14 3 14 22 -3 17
-16 20 -16 15 -3 -3 9 -1 21 5 27 13 13 2 31 -26 42 -13 5 -15 9 -6 9 9 1 26
-6 38 -15z m-18 -25 c0 -5 -7 -9 -15 -9 -15 0 -20 12 -9 23 8 8 24 -1 24 -14z"/>
<path d="M6400 7640 c0 -5 9 -14 20 -20 11 -6 20 -19 20 -30 0 -20 -185 -306
-214 -329 -13 -11 -22 -12 -43 -2 -14 6 -28 9 -31 6 -7 -6 -12 -2 87 -68 86
-57 112 -66 73 -24 -12 13 -22 29 -22 36 0 17 196 311 218 328 13 10 20 10 38
-2 26 -17 37 -19 32 -6 -3 8 -165 121 -174 121 -2 0 -4 -4 -4 -10z"/>
<path d="M6661 7375 c-35 -30 -56 -85 -46 -123 3 -15 22 -61 41 -103 47 -106
44 -147 -15 -178 -61 -33 -151 33 -151 110 0 22 7 56 15 76 18 42 11 57 -13
26 -9 -11 -32 -39 -50 -62 -33 -40 -30 -51 9 -31 16 9 19 7 19 -10 0 -36 38
-97 75 -120 76 -47 151 -30 195 42 29 47 25 79 -20 179 -22 49 -40 102 -40
118 0 76 80 100 133 41 28 -31 29 -37 24 -99 l-5 -66 39 44 c42 47 50 68 20
51 -28 -14 -31 -13 -31 13 0 12 -9 35 -19 51 -45 68 -125 86 -180 41z"/>
<path d="M1642 7229 c-68 -61 -120 -114 -117 -117 3 -3 11 0 17 6 7 7 20 12
29 12 18 0 256 -254 273 -290 7 -15 4 -25 -8 -39 -10 -11 -16 -24 -15 -29 4
-9 280 231 287 248 4 10 -84 121 -91 114 -3 -3 1 -21 9 -39 8 -19 14 -51 14
-71 0 -31 -8 -45 -49 -85 -26 -27 -57 -49 -68 -49 -12 0 -47 28 -87 71 -66 69
-67 71 -49 91 10 11 30 26 44 34 24 12 30 11 54 -7 28 -23 47 -19 24 4 -8 8
-34 35 -57 61 -46 49 -66 56 -37 13 19 -29 13 -47 -30 -87 l-26 -24 -64 69
c-35 39 -64 73 -65 77 0 11 111 98 126 98 8 0 33 -9 54 -20 22 -11 40 -17 40
-12 0 8 -72 82 -80 82 -3 0 -60 -50 -128 -111z"/>
<path d="M7050 7131 c0 -5 7 -14 15 -21 8 -7 15 -20 15 -29 0 -22 -275 -291
-298 -291 -4 0 -18 9 -31 21 -12 12 -25 18 -28 15 -8 -8 140 -165 150 -159 5
3 2 12 -6 21 -30 36 -28 42 34 107 34 36 67 65 74 65 6 0 30 -20 54 -44 53
-54 89 -70 135 -62 49 9 96 65 96 114 0 51 -22 87 -113 187 -73 79 -97 98 -97
76z m136 -147 c48 -62 28 -129 -51 -168 -36 -18 -39 -18 -71 -1 -18 10 -42 28
-54 40 l-21 22 73 71 c40 40 78 72 85 72 7 0 24 -16 39 -36z"/>
<path d="M1350 6935 c-66 -75 -93 -118 -48 -77 13 12 31 22 39 22 14 0 242
-196 286 -246 22 -24 22 -27 7 -55 -8 -17 -14 -33 -12 -35 3 -2 37 32 77 77
40 44 71 83 67 86 -3 4 -17 -4 -31 -17 -24 -22 -25 -22 -52 -5 -58 38 -283
249 -283 265 0 10 7 23 15 30 16 13 20 30 8 30 -5 -1 -37 -34 -73 -75z"/>
<path d="M1160 6715 c0 -3 7 -13 15 -21 22 -23 19 -27 -30 -47 -118 -49 -168
-187 -109 -305 46 -92 154 -158 245 -150 109 11 202 108 203 214 1 55 1 55 29
51 15 -2 27 0 27 4 0 11 -130 102 -137 96 -3 -3 10 -24 28 -47 30 -37 34 -49
34 -100 0 -97 -58 -155 -153 -154 -84 0 -183 61 -239 145 -86 130 54 286 202
225 54 -23 41 -1 -25 44 -63 43 -90 56 -90 45z"/>
<path d="M7270 6604 c-226 -56 -259 -61 -278 -42 -6 6 -15 9 -18 5 -6 -6 71
-117 81 -117 2 0 1 16 -2 35 -5 32 -3 36 28 49 19 8 50 17 69 20 34 6 37 4 78
-55 24 -33 46 -67 48 -74 7 -17 -61 -125 -78 -125 -6 0 -20 7 -30 17 -34 30
-18 -4 32 -71 53 -70 66 -80 57 -44 -7 26 -2 36 130 260 58 98 103 181 101
186 -1 5 -100 -15 -218 -44z m84 -70 c-26 -44 -50 -83 -54 -87 -4 -5 -28 20
-53 54 -26 34 -46 64 -44 65 5 5 192 52 195 49 2 -1 -18 -38 -44 -81z"/>
<path d="M7694 6319 c5 -27 2 -40 -11 -51 -10 -9 -89 -53 -176 -98 -167 -87
-167 -87 -204 -40 -6 8 -14 12 -17 9 -5 -5 71 -159 79 -159 3 0 2 20 -1 43 -7
51 -19 42 198 156 l137 71 -33 -72 c-19 -40 -68 -145 -110 -232 -109 -227
-109 -220 5 -159 241 129 297 155 318 143 11 -5 24 -18 30 -28 5 -9 12 -14 16
-11 8 8 -66 159 -78 159 -7 0 -4 -19 10 -57 8 -20 -34 -50 -164 -118 -68 -34
-123 -62 -123 -60 0 3 53 116 139 298 28 60 51 110 51 113 0 2 -16 32 -36 66
-33 58 -35 60 -30 27z"/>
<path d="M827 6114 c-101 -53 -161 -184 -137 -301 10 -46 21 -65 59 -103 103
-103 244 -107 342 -10 80 80 111 207 70 295 -57 124 -216 181 -334 119z m196
-81 c90 -48 127 -96 127 -166 0 -58 -33 -123 -77 -153 -42 -28 -133 -24 -204
8 -134 61 -186 151 -145 249 48 114 157 136 299 62z"/>
<path d="M7967 5747 c3 -21 0 -37 -9 -44 -20 -17 -336 -133 -362 -133 -15 0
-27 9 -35 26 -6 15 -14 24 -18 21 -7 -8 56 -185 69 -193 6 -4 8 5 3 24 -5 26
-2 33 20 48 30 20 333 134 356 134 9 0 21 -11 27 -25 6 -14 16 -25 21 -25 6 0
-2 30 -16 68 -14 37 -30 82 -36 100 -13 42 -27 41 -20 -1z"/>
<path d="M540 5542 c0 -3 7 -13 16 -23 14 -16 14 -18 -6 -29 -32 -17 -60 -70
-60 -113 0 -58 23 -93 74 -112 42 -16 46 -16 88 3 27 12 65 44 102 86 74 84
124 100 172 54 27 -24 35 -60 23 -104 -14 -49 -59 -81 -124 -89 -30 -4 -53
-11 -50 -15 7 -11 126 -42 133 -35 4 4 -1 11 -11 16 -23 14 -21 23 8 39 60 32
90 131 59 195 -23 50 -66 75 -128 75 -49 0 -51 -1 -133 -85 -46 -47 -95 -88
-110 -91 -41 -11 -77 14 -81 55 -7 68 31 111 111 126 21 4 35 11 30 15 -11 10
-113 39 -113 32z"/>
<path d="M7885 5380 c-60 -11 -97 -28 -133 -63 -61 -58 -80 -124 -62 -213 9
-44 21 -65 56 -102 45 -46 45 -47 25 -63 -26 -22 -17 -29 22 -19 18 5 51 14
75 20 53 14 54 25 2 26 -59 3 -111 33 -137 79 -56 99 -5 201 121 245 74 25
168 26 216 2 109 -54 108 -207 -2 -275 -27 -17 -46 -32 -44 -34 2 -2 42 6 90
18 87 22 112 39 56 39 -35 0 -34 -4 -14 51 29 80 0 187 -65 242 -49 41 -134
60 -206 47z"/>
<path d="M575 4965 c-53 -52 -16 -145 56 -145 46 0 89 43 89 87 0 74 -93 111
-145 58z"/>
<path d="M7975 4558 c-48 -28 -60 -87 -25 -131 26 -33 63 -41 100 -22 58 30
67 90 21 136 -31 30 -63 36 -96 17z"/>
<path d="M606 4419 c-14 -11 -48 -64 -76 -118 -49 -95 -74 -121 -116 -121 -28
0 -64 47 -64 84 0 41 47 102 86 112 44 11 25 24 -36 24 -59 0 -80 -12 -39 -23
21 -6 21 -6 -3 -37 -50 -68 -21 -171 55 -197 78 -26 132 14 191 141 50 110
108 136 167 77 68 -68 18 -178 -94 -205 -48 -11 -19 -26 53 -26 70 0 101 14
56 26 l-24 6 23 34 c38 57 44 130 13 187 -29 55 -141 76 -192 36z"/>
<path d="M790 4016 c0 -37 -20 -66 -119 -171 l-60 -65 -16 30 c-26 50 -55 70
-100 70 -106 0 -135 -84 -99 -285 18 -98 34 -132 34 -72 0 48 0 48 218 77 184
25 204 23 210 -19 2 -11 8 -21 13 -21 6 0 8 12 5 28 -3 15 -10 64 -17 110 -6
45 -16 82 -21 82 -5 0 -7 -12 -4 -27 9 -42 -5 -54 -85 -69 -155 -29 -157 -12
-18 132 69 72 99 110 95 122 -3 9 -8 38 -12 65 -7 54 -24 63 -24 13z m-229
-216 c23 -13 44 -53 53 -101 l6 -37 -67 -7 c-38 -3 -85 -10 -105 -15 -43 -9
-48 -2 -48 64 0 46 21 83 54 96 29 12 84 12 107 0z"/>
<path d="M7788 4030 c-3 -14 -9 -52 -13 -85 -3 -33 -8 -70 -11 -82 -7 -33 10
-28 23 7 10 27 16 30 55 30 23 0 66 -3 95 -6 l52 -7 -6 -67 c-7 -83 -1 -109
32 -143 54 -53 151 -41 189 24 30 51 62 310 36 294 -5 -3 -10 -17 -10 -30 0
-12 -7 -26 -16 -29 -19 -7 -352 30 -387 43 -19 8 -26 18 -29 43 -3 31 -3 31
-10 8z m390 -166 c40 -6 42 -8 42 -39 0 -17 -10 -47 -23 -66 -21 -31 -27 -34
-80 -37 -52 -3 -60 0 -87 27 -30 30 -39 75 -23 116 6 18 34 17 171 -1z"/>
<path d="M7707 3514 c-29 -109 -30 -145 -3 -80 8 20 20 36 26 36 6 0 49 -10
95 -21 68 -17 85 -25 85 -40 0 -22 -26 -40 -100 -69 -148 -57 -169 -71 -179
-109 -22 -82 -23 -91 -12 -91 6 0 11 7 11 15 0 23 58 63 165 110 55 25 101 45
102 45 2 0 3 -18 3 -41 0 -54 51 -109 100 -109 76 0 126 67 160 216 11 49 23
97 26 107 3 9 1 17 -5 17 -6 0 -13 -11 -17 -24 -3 -14 -13 -27 -21 -31 -9 -3
-68 8 -132 25 -274 70 -276 71 -265 123 3 15 2 27 -3 27 -4 0 -21 -48 -36
-106z m353 -129 c69 -19 75 -23 72 -45 -5 -37 -35 -83 -63 -99 -32 -18 -90 -8
-125 22 -27 24 -33 62 -19 126 7 35 0 35 135 -4z"/>
<path d="M818 3453 c-67 -18 -75 -33 -18 -33 23 0 55 -7 71 -16 34 -17 67 -79
71 -135 3 -29 -1 -35 -32 -51 -19 -9 -63 -26 -98 -36 l-63 -20 -10 27 c-25 64
-23 78 11 96 51 27 27 29 -54 5 -75 -22 -96 -41 -36 -32 26 4 32 0 44 -29 29
-69 29 -69 -70 -99 l-92 -27 -16 49 c-26 82 -22 112 21 147 20 17 34 33 31 36
-4 4 -94 -30 -107 -41 -3 -3 4 -28 65 -231 14 -46 29 -83 33 -83 5 0 6 11 4
24 -4 17 1 27 16 36 27 14 345 110 366 110 8 0 24 -15 35 -32 32 -52 24 -11
-33 177 -36 117 -57 170 -67 172 -8 0 -41 -6 -72 -14z"/>
<path d="M7611 3024 c-93 -47 -161 -176 -146 -278 18 -118 125 -206 253 -206
83 0 163 55 210 144 22 42 27 64 27 127 0 67 -3 81 -30 125 -24 38 -45 56 -94
81 -81 43 -144 44 -220 7z m181 -76 c136 -62 174 -147 117 -260 -34 -68 -101
-95 -189 -77 -177 36 -271 160 -211 277 54 106 142 124 283 60z"/>
<path d="M972 2983 c-69 -27 -73 -39 -13 -34 64 4 104 -20 135 -80 42 -85 39
-92 -58 -139 -47 -22 -89 -40 -94 -40 -10 0 -42 64 -42 85 0 7 12 22 27 33 16
11 26 23 23 25 -6 6 -150 -59 -150 -67 0 -3 17 -4 37 -3 34 2 39 -1 61 -40
l23 -42 -68 -34 c-112 -56 -110 -56 -138 5 -33 71 -32 100 6 143 17 19 28 35
25 35 -7 0 -72 -33 -94 -48 -9 -6 4 -44 54 -153 71 -152 91 -185 80 -133 -5
21 -2 35 7 42 23 19 340 162 360 162 9 0 23 -11 29 -25 6 -14 15 -25 20 -25
12 0 11 2 -21 72 -16 35 -52 112 -80 173 -27 60 -54 110 -58 111 -4 1 -36 -9
-71 -23z"/>
<path d="M7286 2481 c-31 -48 -56 -92 -56 -96 0 -5 13 4 29 19 35 33 36 33
138 -30 44 -28 70 -50 66 -58 -38 -67 -52 -74 -105 -51 -42 17 -13 -15 48 -54
71 -45 93 -47 53 -5 l-23 25 23 44 23 44 57 -36 c31 -20 67 -43 81 -51 14 -9
27 -17 28 -18 8 -5 -73 -117 -95 -131 -18 -12 -31 -13 -63 -5 -22 5 -40 6 -40
2 0 -7 82 -60 93 -60 9 0 198 302 193 307 -3 3 -16 -7 -29 -22 -28 -33 -14
-39 -219 92 -153 98 -162 108 -138 154 7 11 7 19 1 19 -5 0 -34 -40 -65 -89z"/>
<path d="M1111 2424 c-96 -63 -183 -114 -194 -114 -11 0 -29 7 -39 17 -32 29
-28 9 12 -54 55 -86 72 -93 43 -17 -2 6 4 20 14 32 18 20 253 176 253 167 0
-2 -9 -28 -19 -57 -11 -29 -45 -124 -76 -210 l-55 -158 36 -55 c38 -56 62 -74
42 -31 -6 14 -8 32 -5 41 8 19 305 215 326 215 8 0 25 -10 38 -22 13 -12 26
-19 29 -16 7 8 -86 148 -98 148 -5 0 -4 -9 2 -19 5 -11 10 -31 10 -45 0 -22
-22 -40 -150 -126 -82 -55 -152 -100 -156 -100 -3 0 -4 8 -1 18 6 21 151 427
166 464 5 15 7 29 3 31 -4 3 -85 -47 -181 -109z"/>
<path d="M6982 2060 l-122 -148 52 -50 c29 -28 55 -49 57 -47 2 2 -6 25 -18
50 -11 24 -21 56 -21 69 0 27 55 112 86 133 19 12 26 10 71 -24 27 -21 64 -50
82 -65 l32 -28 -26 -34 c-33 -43 -43 -47 -78 -29 -48 24 -40 9 23 -47 34 -29
64 -50 67 -46 3 3 -2 15 -12 26 -21 23 -15 53 18 92 l22 27 73 -60 c39 -33 72
-65 72 -70 0 -5 -22 -32 -50 -60 -52 -55 -52 -55 -140 -34 -25 6 -25 6 4 -18
33 -29 74 -52 79 -46 2 2 50 59 107 127 56 67 100 125 97 129 -4 3 -15 -1 -25
-10 -10 -10 -23 -17 -29 -17 -13 0 -295 235 -306 256 -6 10 -3 24 7 39 9 13
16 27 16 30 0 17 -28 -12 -138 -145z"/>
<path d="M1576 2081 c11 -18 14 -33 8 -43 -12 -21 -264 -237 -292 -250 -18 -9
-26 -7 -47 12 -47 44 -25 5 41 -73 63 -75 96 -98 59 -40 l-18 27 54 50 c95 89
252 216 266 216 7 0 22 -9 34 -21 11 -11 23 -18 26 -15 7 7 -127 166 -139 166
-5 0 -2 -13 8 -29z"/>
<path d="M1737 1773 c-45 -46 -48 -47 -79 -35 -17 6 -33 10 -35 8 -2 -2 31
-34 72 -71 42 -37 78 -65 82 -62 3 3 -2 13 -11 22 -24 24 -20 43 18 81 104
104 254 -58 182 -195 -27 -50 -114 -140 -160 -163 -132 -67 -277 82 -208 215
11 20 17 39 13 42 -10 5 -115 -114 -107 -122 3 -3 15 2 26 12 16 14 20 15 24
4 2 -8 9 -33 15 -57 13 -46 61 -101 114 -129 46 -25 150 -23 202 4 47 25 106
84 129 130 22 43 20 137 -3 188 -23 50 -80 101 -147 131 -29 13 -55 28 -59 33
-10 18 -18 13 -68 -36z"/>
<path d="M6770 1814 c0 -3 5 -14 10 -25 10 -17 7 -19 -21 -19 -107 0 -190
-121 -144 -210 39 -75 99 -91 210 -56 134 43 195 31 195 -40 0 -69 -72 -107
-151 -80 -24 8 -45 13 -48 10 -5 -5 69 -84 80 -84 3 0 4 12 1 26 -3 17 -1 25
5 21 21 -13 83 15 113 51 69 84 14 192 -98 192 -21 0 -65 -9 -98 -21 -125 -43
-189 -22 -189 62 0 34 6 46 38 75 44 41 89 45 154 13 24 -12 47 -18 50 -15 4
4 -15 29 -42 56 -45 46 -65 59 -65 44z"/>
<path d="M6456 1515 c6 -24 4 -25 -35 -25 -52 0 -89 -18 -130 -65 -24 -28 -31
-45 -31 -78 0 -48 26 -98 65 -123 26 -17 25 -17 221 2 66 6 72 5 92 -17 74
-78 -56 -170 -155 -109 -41 25 -42 13 -1 -45 35 -50 52 -58 42 -20 -6 23 -4
25 32 25 140 0 183 176 58 232 -43 18 -48 19 -120 4 -117 -24 -147 -22 -178
15 -30 35 -32 58 -11 99 34 66 131 78 201 25 19 -15 38 -25 41 -22 7 7 -77
127 -89 127 -4 0 -6 -11 -2 -25z"/>
<path d="M2134 1294 l-119 -179 -42 2 c-24 1 -43 0 -43 -1 0 -9 143 -96 148
-91 4 4 0 12 -9 18 -9 7 -21 22 -27 33 -10 19 -1 38 71 152 45 72 85 131 88
132 3 0 11 -84 18 -187 17 -271 14 -258 78 -300 54 -37 86 -39 42 -4 -23 18
-23 20 -7 53 27 58 190 300 206 306 8 3 28 0 43 -5 51 -19 31 5 -42 52 -69 44
-106 55 -59 17 12 -10 23 -29 23 -43 0 -18 -136 -246 -190 -318 -9 -12 -13 24
-28 259 -10 140 -21 261 -25 269 -5 10 -43 -39 -126 -165z"/>
<path d="M6026 1258 c-50 -28 -85 -53 -78 -56 6 -2 21 2 33 8 18 10 25 9 40
-6 28 -29 189 -315 189 -337 0 -10 -10 -27 -22 -37 -45 -36 -11 -27 71 20 84
48 127 81 86 65 -47 -18 -53 -16 -78 17 -35 47 -177 301 -177 318 0 8 10 24
22 37 33 35 12 28 -86 -29z"/>
<path d="M2656 1127 c-19 -34 -33 -63 -31 -65 2 -2 24 13 50 32 56 43 89 46
164 11 53 -25 54 -26 48 -63 -3 -20 -19 -67 -36 -104 l-31 -67 -37 15 c-50 21
-64 39 -52 71 11 30 11 33 1 33 -7 0 -34 -54 -70 -142 -2 -4 1 -8 6 -8 6 0 13
9 17 19 9 29 33 33 82 15 33 -13 42 -21 38 -33 -28 -72 -72 -161 -80 -160 -5
0 -35 12 -65 28 -62 31 -82 61 -74 109 10 51 -12 38 -31 -19 -9 -28 -15 -52
-14 -54 13 -11 295 -135 304 -132 5 2 0 9 -13 16 -12 7 -22 21 -22 34 0 12 35
99 78 192 l78 170 38 -1 c20 -1 34 2 29 7 -7 7 -233 112 -310 144 l-32 14 -35
-62z"/>
<path d="M5650 1081 c-77 -24 -140 -73 -172 -135 -40 -79 -17 -208 50 -280 84
-89 248 -87 354 3 45 39 88 120 88 167 0 93 -65 199 -145 235 -41 19 -129 24
-175 10z m103 -25 c95 -41 172 -225 137 -330 -14 -44 -60 -81 -122 -97 -97
-26 -187 44 -228 179 -25 81 -25 115 1 168 15 33 32 49 72 68 57 29 93 32 140
12z"/>
<path d="M5213 922 c-75 -16 -96 -32 -44 -32 25 0 61 -21 61 -35 0 -14 72
-329 77 -337 15 -26 -29 9 -219 171 -131 112 -204 168 -206 159 -2 -9 15 -98
38 -198 22 -101 40 -194 40 -207 0 -15 -10 -30 -30 -42 -16 -10 -28 -20 -25
-23 6 -6 153 26 162 36 4 3 -8 6 -25 6 -25 0 -62 21 -62 35 0 2 -14 66 -31
141 -16 75 -28 138 -26 140 2 2 44 -31 93 -73 49 -42 125 -107 170 -144 l80
-68 67 15 c37 9 67 20 67 25 0 4 -13 6 -30 3 -27 -6 -31 -3 -44 27 -18 43 -76
310 -76 349 0 22 7 31 30 42 30 13 41 29 18 27 -7 -1 -46 -9 -85 -17z"/>
<path d="M3840 812 c0 -9 -3 -41 -6 -69 -7 -54 8 -76 20 -29 3 13 19 38 36 56
30 32 31 33 106 28 41 -3 80 -10 86 -16 13 -13 -6 -355 -22 -397 -8 -20 -17
-25 -47 -26 -29 0 -33 -2 -18 -8 29 -12 205 -20 205 -10 0 5 -11 9 -25 9 -15
0 -28 7 -32 17 -10 24 17 385 29 400 6 7 23 13 39 13 16 0 29 5 29 10 0 6 -5
10 -12 10 -18 0 -286 19 -340 25 -40 3 -48 1 -48 -13z"/>
<path d="M4698 823 c-61 -4 -76 -16 -33 -27 19 -5 25 -13 25 -33 0 -41 -22
-103 -40 -113 -9 -5 -49 -10 -90 -11 l-75 -3 -32 64 c-33 67 -31 90 8 90 11 0
19 5 19 11 0 8 -13 10 -37 5 -21 -3 -62 -6 -90 -6 -56 0 -67 -10 -30 -27 16
-7 55 -75 130 -222 60 -116 111 -211 115 -211 4 0 38 91 76 203 80 234 89 253
116 262 22 7 28 26 8 23 -7 -1 -39 -3 -70 -5z m-48 -200 c0 -5 -14 -50 -31
-102 l-32 -95 -43 85 c-24 46 -43 89 -43 96 -1 11 30 17 117 21 17 1 32 -1 32
-5z"/>
<path d="M3350 767 c-71 -36 -57 -145 20 -162 94 -21 144 116 59 160 -34 18
-47 18 -79 2z"/>
</g>
</svg>
